<svg xmlns="http://www.w3.org/2000/svg" xmlns:xlink="http://www.w3.org/1999/xlink" width="31" height="24" viewBox="0 0 31 24"><defs><path id="yc0ga" d="M1170 286a1 1 0 0 1 1-1h18a1 1 0 0 1 1 1v1a1 1 0 0 1-1 1h-18a1 1 0 0 1-1-1zm23 0a1 1 0 0 1 1-1h2a1 1 0 0 1 1 1v1a1 1 0 0 1-1 1h-2a1 1 0 0 1-1-1zm-23 9a1 1 0 0 1 1-1h18a1 1 0 0 1 1 1v1a1 1 0 0 1-1 1h-18a1 1 0 0 1-1-1zm23 0a1 1 0 0 1 1-1h2a1 1 0 0 1 1 1v1a1 1 0 0 1-1 1h-2a1 1 0 0 1-1-1zm-23 9a1 1 0 0 1 1-1h18a1 1 0 0 1 1 1v1a1 1 0 0 1-1 1h-18a1 1 0 0 1-1-1zm23 0a1 1 0 0 1 1-1h2a1 1 0 0 1 1 1v1a1 1 0 0 1-1 1h-2a1 1 0 0 1-1-1z"/></defs><g><g transform="translate(-1168 -283)"><use fill="#696c6f" xlink:href="#yc0ga"/></g></g></svg>