<svg xmlns="http://www.w3.org/2000/svg" xmlns:xlink="http://www.w3.org/1999/xlink" width="25" height="24" viewBox="0 0 25 24"><defs><path id="tyoya" d="M252.16 41.49a2.72 2.72 0 0 1-2.7 2.73 2.72 2.72 0 0 1-2.7-2.73 2.72 2.72 0 0 1 2.7-2.74c1.5 0 2.7 1.23 2.7 2.74zm-1.55 0c0-.65-.51-1.17-1.15-1.17-.63 0-1.14.52-1.14 1.17 0 .64.51 1.16 1.14 1.16.64 0 1.15-.52 1.15-1.16zm3.4-12.4l-2.02 7.27c-.1.41-.47.7-.88.7h-11.36a.92.92 0 0 1-.9-.7l-2.98-10.5h-2.89V23.9h3.81c.42 0 .79.28.9.7l.7 3.34h14.73c.29 0 .56.13.73.36.17.23.23.52.16.8zm-2.27.7h-12.59l1.58 5.41h9.5zm-10.29 8.96h.01c1.5 0 2.7 1.23 2.7 2.74 0 1.5-1.2 2.73-2.7 2.73-1.49 0-2.7-1.22-2.7-2.73 0-1.5 1.2-2.73 2.69-2.74zm1.15 2.74c0-.64-.5-1.17-1.14-1.17-.64 0-1.15.52-1.15 1.17 0 .64.51 1.17 1.15 1.17.64 0 1.16-.53 1.16-1.17z"/><clipPath id="tyoyb"><use fill="#fff" xlink:href="#tyoya"/></clipPath></defs><g><g transform="translate(-231 -22)"><use fill="#fff" xlink:href="#tyoya"/><use fill="#fff" fill-opacity="0" stroke="#fff" stroke-miterlimit="50" stroke-width=".3" clip-path="url(&quot;#tyoyb&quot;)" xlink:href="#tyoya"/></g></g></svg>